# xmcd
#
# Track frame offsets: 
#        150
#        8644
#        21086
#        33607
#        41623
#        51928
#        65085
#        74184
#        84006
#        95676
#        106936
#        116777
#        127086
#        145465
#        157205
#        169748
#        179816
#        190540
#        198775
#        208355
#
# Disc length: 2931 seconds
#
# Revision: 0
# Processed by: cddbd v1.5.2PL0 Copyright (c) Steve Scherf et al.
# Submitted via: ExactAudioCopy v1.1
#
DISCID=310b7114
DTITLE=Johnny Cash - Rebel [CD1)
DYEAR=2015
DGENRE=Country
TTITLE0=The Rebel
TTITLE1=I Walk The Line
TTITLE2=Folsom Prison Blues
TTITLE3=Five Feet High And Risin
TTITLE4=Busted
TTITLE5=Forty Shades Of Green
TTITLE6=Delia's Gone
TTITLE7=Rock Island Line
TTITLE8=I Still Miss Someone
TTITLE9=Oh Lonesome Me
TTITLE10=Ballad Of A Teenage Queen
TTITLE11=Frankie's Man, Johnny
TTITLE12=The Big Battle
TTITLE13=So Doggone Lonesome
TTITLE14=(There'll Be) Peace In The Valley
TTITLE15=Run Softly Blue River
TTITLE16=In The Jailhouse Now
TTITLE17=You Won't Have Far To Go
TTITLE18=Smiling Bill McCall
TTITLE19=In Them Old Cottonfields Back Home
EXTD=
EXTT0=
EXTT1=
EXTT2=
EXTT3=
EXTT4=
EXTT5=
EXTT6=
EXTT7=
EXTT8=
EXTT9=
EXTT10=
EXTT11=
EXTT12=
EXTT13=
EXTT14=
EXTT15=
EXTT16=
EXTT17=
EXTT18=
EXTT19=
PLAYORDER=
